<svg width="425" height="152" viewBox="0 0 425 152" fill="none" xmlns="http://www.w3.org/2000/svg">
<path d="M120.999 100.001L119.549 98.7009C117.866 97.1842 116.474 95.8759 115.374 94.7759C114.274 93.6759 113.399 92.6884 112.749 91.8134C112.099 90.9384 111.645 90.1342 111.387 89.4009C111.128 88.6675 110.999 87.9175 110.999 87.1509C110.999 85.5842 111.524 84.2759 112.574 83.2259C113.624 82.1759 114.932 81.6509 116.499 81.6509C117.366 81.6509 118.191 81.8342 118.974 82.2009C119.757 82.5675 120.432 83.0842 120.999 83.7509C121.566 83.0842 122.241 82.5675 123.024 82.2009C123.807 81.8342 124.632 81.6509 125.499 81.6509C127.066 81.6509 128.374 82.1759 129.424 83.2259C130.474 84.2759 130.999 85.5842 130.999 87.1509C130.999 87.9175 130.87 88.6675 130.612 89.4009C130.353 90.1342 129.899 90.9384 129.249 91.8134C128.599 92.6884 127.724 93.6759 126.624 94.7759C125.524 95.8759 124.132 97.1842 122.449 98.7009L120.999 100.001Z" fill="#FEE5BF"/>
<path d="M7.1536 134.853L7.17902 132.905C7.21416 130.64 7.28422 128.731 7.38921 127.179C7.49421 125.627 7.66246 124.318 7.89398 123.253C8.12549 122.188 8.43247 121.317 8.8149 120.64C9.19734 119.963 9.67729 119.373 10.2548 118.868C11.4348 117.838 12.7656 117.373 14.2471 117.473C15.7287 117.573 16.9847 118.213 18.0152 119.393C18.5853 120.046 18.9898 120.788 19.2289 121.619C19.468 122.45 19.5228 123.299 19.3934 124.164C20.2683 124.152 21.1014 124.321 21.8929 124.67C22.6843 125.019 23.3651 125.519 23.9351 126.172C24.9656 127.352 25.4308 128.683 25.3306 130.165C25.2303 131.646 24.5902 132.902 23.4102 133.933C22.8327 134.437 22.1828 134.833 21.4605 135.121C20.7383 135.408 19.8338 135.595 18.7472 135.681C17.6606 135.767 16.3412 135.758 14.7891 135.653C13.237 135.548 11.3362 135.36 9.08656 135.09L7.1536 134.853Z" fill="#FEE5BF"/>
<path d="M103.227 10.8477L103.78 12.715C104.418 14.8891 104.917 16.7329 105.277 18.2463C105.637 19.7597 105.864 21.0594 105.959 22.1453C106.053 23.2312 106.018 24.1541 105.854 24.914C105.689 25.6739 105.406 26.3802 105.004 27.033C104.183 28.3671 103.049 29.2058 101.605 29.5493C100.16 29.8929 98.7709 29.6539 97.4368 28.8324C96.6989 28.378 96.0925 27.7893 95.6178 27.0663C95.143 26.3434 94.8392 25.5495 94.7062 24.6847C93.8741 24.9552 93.0284 25.0412 92.1692 24.9427C91.3099 24.8442 90.5113 24.5677 89.7733 24.1133C88.4393 23.2918 87.6005 22.1587 87.257 20.7141C86.9135 19.2694 87.1525 17.8801 87.9739 16.5461C88.3759 15.8933 88.8792 15.3224 89.4837 14.8334C90.0882 14.3444 90.8966 13.8978 91.9088 13.4936C92.9211 13.0893 94.184 12.7073 95.6974 12.3474C97.2108 11.9875 99.0819 11.6032 101.311 11.1944L103.227 10.8477Z" fill="#FEE5BF"/>
<path d="M251.228 24.8822L250.292 23.7607C249.207 22.4533 248.315 21.332 247.618 20.3968C246.92 19.4616 246.377 18.6342 245.989 17.9145C245.601 17.1949 245.351 16.549 245.239 15.9769C245.126 15.4047 245.111 14.8341 245.194 14.2651C245.363 13.1024 245.894 12.188 246.787 11.5221C247.68 10.8562 248.707 10.6079 249.87 10.7771C250.513 10.8707 251.106 11.0959 251.648 11.4526C252.189 11.8093 252.635 12.2657 252.983 12.8217C253.476 12.3881 254.032 12.0775 254.653 11.89C255.274 11.7025 255.907 11.6555 256.55 11.7491C257.712 11.9183 258.627 12.4492 259.293 13.3419C259.959 14.2346 260.207 15.2623 260.038 16.4251C259.955 16.9941 259.778 17.5368 259.507 18.0532C259.236 18.5695 258.812 19.1173 258.235 19.6965C257.658 20.2757 256.902 20.9141 255.967 21.6117C255.032 22.3093 253.858 23.1301 252.445 24.0739L251.228 24.8822Z" fill="#FEE5BF"/>
<path d="M104.041 145.495L102.615 145.81C100.955 146.173 99.549 146.449 98.3978 146.638C97.2465 146.827 96.2621 146.928 95.4447 146.942C94.6273 146.955 93.9387 146.88 93.3789 146.717C92.8191 146.554 92.3057 146.304 91.8385 145.969C90.8839 145.284 90.3163 144.392 90.1357 143.293C89.9551 142.194 90.2074 141.167 90.8925 140.213C91.2715 139.685 91.744 139.262 92.3099 138.945C92.8759 138.628 93.4859 138.443 94.1399 138.389C93.9815 137.752 93.9619 137.115 94.081 136.477C94.2002 135.84 94.4492 135.257 94.8282 134.729C95.5133 133.774 96.4054 133.207 97.5043 133.026C98.6033 132.845 99.6301 133.098 100.585 133.783C101.052 134.118 101.452 134.525 101.786 135.003C102.12 135.481 102.411 136.109 102.66 136.888C102.909 137.667 103.128 138.632 103.317 139.783C103.507 140.934 103.695 142.354 103.883 144.043L104.041 145.495Z" fill="#FEE5BF"/>
<path d="M248.943 101.948L249.216 101.014C249.537 99.927 249.826 99.0169 250.084 98.2832C250.343 97.5496 250.599 96.9417 250.853 96.4596C251.107 95.9774 251.372 95.5989 251.647 95.324C251.922 95.0491 252.232 94.8289 252.578 94.6632C253.284 94.3248 253.987 94.2789 254.688 94.5255C255.388 94.7722 255.907 95.2487 256.246 95.9552C256.433 96.346 256.529 96.7576 256.532 97.19C256.536 97.6225 256.449 98.0385 256.271 98.438C256.694 98.5495 257.073 98.7423 257.407 99.0163C257.742 99.2903 258.003 99.6227 258.19 100.014C258.528 100.72 258.574 101.423 258.328 102.124C258.081 102.824 257.604 103.343 256.898 103.682C256.552 103.847 256.186 103.951 255.8 103.993C255.413 104.035 254.953 104.004 254.418 103.9C253.883 103.796 253.248 103.615 252.515 103.356C251.781 103.098 250.89 102.753 249.843 102.321L248.943 101.948Z" fill="#FEE5BF"/>
<path d="M183.063 59.818L182.12 60.0606C181.022 60.3402 180.092 60.5562 179.329 60.7087C178.566 60.8612 177.913 60.9513 177.368 60.979C176.824 61.0067 176.364 60.9726 175.987 60.8766C175.61 60.7807 175.262 60.6264 174.943 60.4138C174.292 59.9792 173.893 59.3979 173.747 58.6698C173.602 57.9418 173.746 57.2519 174.181 56.6001C174.421 56.2396 174.726 55.9472 175.096 55.7231C175.466 55.4989 175.868 55.3614 176.303 55.3106C176.182 54.8899 176.155 54.4658 176.22 54.0382C176.284 53.6107 176.437 53.2166 176.677 52.8561C177.112 52.2043 177.693 51.8057 178.421 51.6601C179.149 51.5145 179.839 51.659 180.491 52.0936C180.81 52.3063 181.086 52.568 181.319 52.8789C181.553 53.1898 181.761 53.6018 181.945 54.1149C182.129 54.628 182.297 55.2659 182.449 56.0286C182.602 56.7914 182.76 57.7332 182.924 58.8542L183.063 59.818Z" fill="#FEE5BF"/>
<path d="M39.7779 69.6603L40.7443 69.7794C41.8683 69.9208 42.8132 70.06 43.5788 70.197C44.3445 70.3341 44.9856 70.4893 45.5024 70.6626C46.0191 70.8359 46.4352 71.0361 46.7507 71.2632C47.0662 71.4903 47.3335 71.7612 47.5526 72.0757C48.0002 72.7186 48.1586 73.4054 48.0278 74.1363C47.8969 74.8671 47.5101 75.4563 46.8672 75.904C46.5116 76.1516 46.1207 76.3121 45.6945 76.3854C45.2684 76.4588 44.8438 76.4397 44.4208 76.328C44.3787 76.7635 44.2494 77.1683 44.0327 77.5426C43.8161 77.9169 43.5299 78.2278 43.1743 78.4754C42.5315 78.923 41.8446 79.0814 41.1138 78.9506C40.383 78.8198 39.7937 78.4329 39.3461 77.7901C39.1271 77.4755 38.9658 77.1309 38.8622 76.7561C38.7587 76.3814 38.7153 75.9217 38.732 75.3769C38.7487 74.8322 38.8256 74.177 38.9627 73.4114C39.0997 72.6457 39.297 71.7112 39.5543 70.608L39.7779 69.6603Z" fill="#FEE5BF"/>
<path d="M308.023 36.004L309.087 37.635C310.32 39.5356 311.326 41.1596 312.104 42.5068C312.882 43.854 313.471 45.0343 313.872 46.0477C314.274 47.0612 314.504 47.9555 314.564 48.7307C314.624 49.5059 314.555 50.2638 314.356 51.0043C313.951 52.5176 313.105 53.6455 311.819 54.3879C310.533 55.1304 309.133 55.2989 307.62 54.8934C306.783 54.6691 306.033 54.2785 305.372 53.7216C304.71 53.1646 304.192 52.4909 303.817 51.7003C303.097 52.1975 302.311 52.5219 301.46 52.6733C300.608 52.8248 299.764 52.7883 298.927 52.564C297.413 52.1585 296.286 51.3128 295.543 50.0268C294.801 48.7408 294.632 47.3412 295.038 45.8279C295.236 45.0874 295.555 44.3964 295.994 43.7549C296.434 43.1134 297.08 42.4542 297.935 41.7772C298.789 41.1003 299.89 40.3729 301.237 39.5951C302.584 38.8173 304.267 37.9137 306.286 36.8844L308.023 36.004Z" fill="#FEE5BF"/>
<path d="M420.14 31.0943L419.611 32.9687C418.991 35.1479 418.429 36.9735 417.926 38.4456C417.423 39.9176 416.922 41.1381 416.422 42.107C415.923 43.0759 415.401 43.8378 414.857 44.3927C414.312 44.9476 413.696 45.3939 413.007 45.7316C411.601 46.4215 410.195 46.5264 408.79 46.0461C407.385 45.5659 406.337 44.6225 405.647 43.2159C405.265 42.4378 405.067 41.6164 405.051 40.7517C405.035 39.8869 405.202 39.0533 405.551 38.251C404.703 38.0358 403.941 37.6574 403.267 37.1156C402.593 36.5738 402.065 35.9138 401.683 35.1358C400.993 33.7292 400.889 32.3234 401.369 30.9183C401.849 29.5131 402.792 28.4656 404.199 27.7756C404.887 27.438 405.618 27.2236 406.39 27.1326C407.162 27.0416 408.084 27.0951 409.156 27.2933C410.228 27.4916 411.499 27.8422 412.972 28.3454C414.444 28.8485 416.231 29.5217 418.334 30.365L420.14 31.0943Z" fill="#FEE5BF"/>
<path d="M307.423 144.145L307.372 142.198C307.319 139.933 307.314 138.023 307.358 136.468C307.402 134.913 307.519 133.599 307.709 132.525C307.898 131.452 308.171 130.57 308.526 129.878C308.882 129.187 309.339 128.578 309.896 128.051C311.035 126.975 312.346 126.458 313.83 126.5C315.315 126.543 316.595 127.133 317.671 128.272C318.266 128.902 318.699 129.627 318.971 130.448C319.242 131.27 319.33 132.115 319.235 132.985C320.109 132.939 320.948 133.075 321.752 133.392C322.557 133.71 323.257 134.184 323.852 134.813C324.928 135.952 325.445 137.264 325.403 138.748C325.361 140.232 324.77 141.513 323.631 142.589C323.074 143.115 322.44 143.536 321.73 143.852C321.019 144.168 320.123 144.39 319.04 144.519C317.958 144.647 316.639 144.689 315.084 144.645C313.529 144.601 311.623 144.488 309.364 144.306L307.423 144.145Z" fill="#FEE5BF"/>
<path d="M185.49 104.625L186.104 105.95C186.814 107.494 187.385 108.808 187.817 109.892C188.248 110.976 188.559 111.915 188.747 112.711C188.936 113.506 189.01 114.195 188.971 114.777C188.931 115.359 188.798 115.914 188.571 116.442C188.106 117.521 187.357 118.267 186.322 118.679C185.288 119.091 184.231 119.065 183.151 118.601C182.554 118.344 182.04 117.973 181.609 117.488C181.178 117.003 180.866 116.447 180.673 115.82C180.085 116.111 179.467 116.267 178.819 116.288C178.171 116.308 177.548 116.19 176.951 115.933C175.871 115.469 175.126 114.719 174.714 113.685C174.301 112.65 174.327 111.593 174.792 110.514C175.019 109.985 175.33 109.507 175.726 109.078C176.121 108.65 176.672 108.23 177.38 107.82C178.087 107.41 178.982 106.989 180.066 106.557C181.15 106.125 182.497 105.637 184.106 105.091L185.49 104.625Z" fill="#FEE5BF"/>
<path d="M337.389 5.44516L338.848 5.51001C340.546 5.58963 341.975 5.68705 343.136 5.80226C344.297 5.91748 345.274 6.07438 346.067 6.27299C346.86 6.47159 347.506 6.7222 348.004 7.0248C348.503 7.32741 348.934 7.70109 349.299 8.14584C350.043 9.05467 350.361 10.0632 350.251 11.1715C350.141 12.2797 349.631 13.2062 348.722 13.951C348.22 14.3629 347.654 14.6488 347.025 14.8084C346.397 14.9681 345.759 14.9893 345.114 14.8719C345.102 15.528 344.956 16.1486 344.676 16.7337C344.396 17.3188 344.004 17.8173 343.502 18.2293C342.593 18.974 341.584 19.2914 340.476 19.1814C339.368 19.0715 338.441 18.5621 337.696 17.6532C337.332 17.2085 337.05 16.712 336.852 16.1638C336.653 15.6156 336.534 14.9332 336.495 14.1166C336.456 13.3 336.494 12.3112 336.61 11.1502C336.725 9.98915 336.91 8.56862 337.166 6.88858L337.389 5.44516Z" fill="#FEE5BF"/>
<path d="M194.071 9.76362L193.565 10.5958C192.974 11.5626 192.459 12.3668 192.02 13.0086C191.58 13.6504 191.176 14.1712 190.805 14.5711C190.435 14.9711 190.082 15.2682 189.745 15.4626C189.408 15.657 189.052 15.7895 188.675 15.86C187.905 16.004 187.214 15.8663 186.601 15.4468C185.988 15.0273 185.61 14.4326 185.466 13.6626C185.386 13.2367 185.4 12.8144 185.509 12.3957C185.617 11.977 185.809 11.5977 186.084 11.2579C185.704 11.0407 185.388 10.7565 185.136 10.4052C184.884 10.0539 184.718 9.66533 184.638 9.23939C184.494 8.46942 184.632 7.77813 185.051 7.16553C185.471 6.55293 186.066 6.1746 186.836 6.03054C187.212 5.96004 187.593 5.95455 187.977 6.01408C188.361 6.07361 188.798 6.22287 189.288 6.46187C189.778 6.70086 190.344 7.0401 190.985 7.47956C191.627 7.91903 192.398 8.48269 193.298 9.17053L194.071 9.76362Z" fill="#FEE5BF"/>
<path d="M249.212 64.7191L250.312 64.7301C251.592 64.746 252.671 64.7823 253.548 64.8389C254.425 64.8955 255.165 64.9883 255.767 65.1172C256.369 65.2462 256.862 65.4181 257.245 65.633C257.628 65.8479 257.963 66.1181 258.249 66.4435C258.833 67.1084 259.098 67.8595 259.044 68.6968C258.99 69.534 258.63 70.2448 257.965 70.8291C257.598 71.1523 257.179 71.3822 256.71 71.5187C256.241 71.6552 255.761 71.6877 255.272 71.6161C255.28 72.1103 255.187 72.5814 254.991 73.0291C254.795 73.4769 254.513 73.8624 254.146 74.1856C253.481 74.7699 252.73 75.035 251.892 74.981C251.055 74.9269 250.344 74.5674 249.76 73.9025C249.474 73.5771 249.249 73.2106 249.085 72.803C248.921 72.3954 248.814 71.8847 248.764 71.271C248.713 70.6572 248.717 69.9117 248.773 69.0346C248.83 68.1575 248.932 67.0832 249.081 65.8116L249.212 64.7191Z" fill="#FEE5BF"/>
<path d="M320.172 92.4578L319.585 91.5268C318.905 90.4419 318.352 89.5154 317.925 88.7473C317.497 87.9792 317.175 87.307 316.957 86.7309C316.74 86.1548 316.618 85.6475 316.591 85.209C316.564 84.7705 316.61 84.343 316.729 83.9264C316.972 83.0752 317.46 82.4456 318.193 82.0378C318.926 81.6299 319.718 81.5474 320.569 81.7901C321.04 81.9244 321.46 82.1518 321.829 82.4724C322.198 82.793 322.485 83.1783 322.689 83.6284C323.1 83.3539 323.547 83.1778 324.03 83.0999C324.512 83.022 324.989 83.0502 325.46 83.1845C326.311 83.4272 326.94 83.9152 327.348 84.6484C327.756 85.3816 327.839 86.1738 327.596 87.0251C327.477 87.4416 327.291 87.8291 327.037 88.1876C326.783 88.546 326.411 88.9126 325.923 89.2873C325.434 89.662 324.805 90.063 324.037 90.4903C323.269 90.9175 322.31 91.4128 321.161 91.9761L320.172 92.4578Z" fill="#FEE5BF"/>
<path d="M392.208 78.913L391.305 78.5478C390.256 78.1203 389.38 77.7413 388.676 77.4107C387.971 77.0802 387.392 76.7643 386.938 76.4632C386.484 76.162 386.134 75.8609 385.888 75.5599C385.642 75.2589 385.454 74.9281 385.323 74.5676C385.057 73.8308 385.082 73.1263 385.398 72.4543C385.713 71.7822 386.239 71.3131 386.976 71.0472C387.384 70.9 387.803 70.8462 388.234 70.8856C388.664 70.925 389.069 71.0534 389.449 71.2707C389.602 70.861 389.832 70.5034 390.138 70.198C390.444 69.8925 390.801 69.6663 391.209 69.5191C391.946 69.2531 392.65 69.2779 393.322 69.5934C393.994 69.909 394.463 70.4351 394.729 71.1719C394.859 71.5325 394.926 71.9071 394.929 72.2959C394.932 72.6846 394.855 73.1399 394.698 73.6618C394.541 74.1836 394.297 74.7966 393.966 75.5007C393.636 76.2048 393.203 77.0563 392.669 78.0554L392.208 78.913Z" fill="#FEE5BF"/>
<path d="M145.567 140.666L144.522 139.023C143.311 137.108 142.324 135.472 141.562 134.116C140.8 132.76 140.224 131.573 139.834 130.555C139.445 129.537 139.225 128.64 139.174 127.864C139.123 127.088 139.201 126.331 139.408 125.593C139.831 124.085 140.69 122.967 141.985 122.239C143.279 121.512 144.681 121.359 146.189 121.782C147.024 122.017 147.769 122.416 148.424 122.98C149.079 123.545 149.589 124.225 149.955 125.02C150.681 124.531 151.47 124.215 152.323 124.074C153.177 123.932 154.02 123.979 154.855 124.213C156.363 124.636 157.481 125.495 158.209 126.789C158.936 128.084 159.089 129.485 158.666 130.994C158.458 131.732 158.132 132.419 157.685 133.055C157.238 133.692 156.584 134.343 155.722 135.01C154.859 135.677 153.75 136.392 152.394 137.154C151.038 137.916 149.345 138.8 147.314 139.806L145.567 140.666ZM146.296 138.066C148.224 137.118 149.823 136.29 151.095 135.582C152.367 134.874 153.394 134.236 154.177 133.668C154.959 133.1 155.542 132.563 155.927 132.056C156.311 131.549 156.582 131.015 156.74 130.453C157.01 129.491 156.914 128.598 156.452 127.776C155.99 126.954 155.278 126.408 154.315 126.138C153.561 125.927 152.803 125.944 152.042 126.189C151.281 126.434 150.687 126.852 150.262 127.443L148.433 126.929C148.377 126.204 148.087 125.539 147.565 124.933C147.042 124.328 146.403 123.92 145.649 123.708C144.686 123.438 143.794 123.534 142.972 123.996C142.15 124.458 141.604 125.17 141.334 126.133C141.177 126.695 141.13 127.292 141.195 127.925C141.26 128.557 141.479 129.32 141.852 130.212C142.225 131.104 142.77 132.183 143.489 133.449C144.207 134.715 145.143 136.254 146.296 138.066Z" fill="#FEE5BF"/>
<path d="M54.0835 122.706L54.7803 120.888C55.5962 118.774 56.3216 117.007 56.9565 115.587C57.5914 114.166 58.2015 112.997 58.7869 112.077C59.3722 111.158 59.9613 110.446 60.5541 109.943C61.1469 109.44 61.8014 109.052 62.5176 108.778C63.981 108.219 65.3906 108.242 66.7462 108.848C68.1018 109.454 69.0593 110.489 69.6185 111.953C69.9278 112.762 70.051 113.598 69.9881 114.461C69.9252 115.324 69.6835 116.138 69.2631 116.906C70.0881 117.197 70.8116 117.643 71.4338 118.244C72.0559 118.845 72.5216 119.55 72.831 120.36C73.3902 121.823 73.3668 123.233 72.7607 124.588C72.1547 125.944 71.1199 126.901 69.6565 127.461C68.9403 127.734 68.1936 127.881 67.4164 127.902C66.6391 127.922 65.7258 127.785 64.6765 127.49C63.6271 127.195 62.3923 126.73 60.9721 126.096C59.552 125.461 57.8331 124.628 55.8155 123.597L54.0835 122.706ZM56.6057 121.742C58.5157 122.725 60.1339 123.517 61.4602 124.116C62.7865 124.715 63.9109 125.16 64.8335 125.45C65.756 125.74 66.5353 125.888 67.1713 125.895C67.8072 125.901 68.3977 125.801 68.9426 125.592C69.8767 125.235 70.5362 124.627 70.921 123.766C71.3057 122.905 71.3197 122.008 70.9627 121.074C70.6831 120.342 70.218 119.744 69.5675 119.278C68.917 118.813 68.2279 118.586 67.5004 118.596L66.8222 116.821C67.3713 116.344 67.7331 115.715 67.9077 114.935C68.0823 114.154 68.0298 113.398 67.7502 112.667C67.3933 111.732 66.7844 111.073 65.9237 110.688C65.063 110.303 64.1656 110.289 63.2315 110.646C62.6866 110.855 62.1794 111.173 61.71 111.602C61.2406 112.032 60.7588 112.662 60.2646 113.493C59.7704 114.324 59.2289 115.405 58.6403 116.736C58.0517 118.067 57.3735 119.736 56.6057 121.742Z" fill="#FEE5BF"/>
<path d="M216.532 73.9703L217.442 75.692C218.496 77.6978 219.348 79.4071 219.999 80.82C220.65 82.2329 221.129 83.4623 221.436 84.5083C221.742 85.5543 221.89 86.466 221.878 87.2434C221.867 88.0208 221.728 88.7691 221.462 89.4883C220.92 90.958 219.974 92.0036 218.626 92.625C217.277 93.2463 215.868 93.2857 214.398 92.7431C213.585 92.443 212.875 91.9853 212.267 91.37C211.659 90.7547 211.205 90.0363 210.904 89.2146C210.141 89.6438 209.329 89.8947 208.467 89.9674C207.605 90.04 206.768 89.9263 205.955 89.6261C204.485 89.0836 203.44 88.1379 202.818 86.7893C202.197 85.4406 202.158 84.0314 202.7 82.5617C202.966 81.8425 203.347 81.1836 203.843 80.5852C204.339 79.9867 205.044 79.3896 205.957 78.7938C206.869 78.1981 208.032 77.5748 209.445 76.9238C210.858 76.2728 212.617 75.5275 214.721 74.6876L216.532 73.9703ZM215.597 76.5032C213.599 77.2937 211.938 77.9908 210.614 78.5945C209.29 79.1981 208.215 79.7518 207.389 80.2554C206.564 80.759 205.939 81.2479 205.515 81.7222C205.091 82.1964 204.778 82.7071 204.576 83.2544C204.23 84.1925 204.254 85.0897 204.649 85.946C205.043 86.8023 205.71 87.4036 206.648 87.7499C207.383 88.0212 208.139 88.0651 208.917 87.8817C209.696 87.6982 210.321 87.3293 210.792 86.7748L212.574 87.4329C212.572 88.1605 212.807 88.8469 213.28 89.4921C213.752 90.1374 214.356 90.5956 215.091 90.8669C216.029 91.2132 216.926 91.1891 217.782 90.7946C218.639 90.4001 219.24 89.7338 219.586 88.7957C219.788 88.2484 219.882 87.6569 219.868 87.021C219.854 86.3852 219.697 85.6076 219.397 84.6884C219.097 83.7692 218.639 82.6499 218.025 81.3305C217.411 80.011 216.601 78.4019 215.597 76.5032Z" fill="#FEE5BF"/>
<path d="M145.714 30.3016L145.412 28.8492C145.065 27.1586 144.802 25.7275 144.625 24.556C144.447 23.3844 144.356 22.3835 144.353 21.5532C144.349 20.7229 144.434 20.0246 144.607 19.4581C144.78 18.8916 145.039 18.3733 145.386 17.9031C146.093 16.9422 147.006 16.3769 148.125 16.2072C149.243 16.0376 150.283 16.3066 151.243 17.0143C151.775 17.4058 152.198 17.8909 152.513 18.4696C152.828 19.0484 153.008 19.6702 153.055 20.335C153.703 20.1821 154.351 20.1701 154.997 20.2991C155.643 20.4281 156.232 20.6883 156.763 21.0798C157.724 21.7875 158.289 22.7005 158.459 23.8188C158.629 24.9371 158.36 25.9767 157.652 26.9376C157.306 27.4078 156.888 27.8094 156.398 28.1425C155.908 28.4756 155.267 28.7636 154.473 29.0067C153.679 29.2497 152.696 29.4601 151.524 29.6379C150.353 29.8156 148.908 29.9894 147.191 30.1592L145.714 30.3016ZM146.934 28.6456C148.563 28.4892 149.925 28.3301 151.022 28.1683C152.119 28.0064 153.023 27.8284 153.733 27.6343C154.444 27.4403 155.004 27.2145 155.415 26.957C155.825 26.6995 156.162 26.3919 156.425 26.0341C156.877 25.4208 157.049 24.7591 156.941 24.0491C156.834 23.3391 156.473 22.7582 155.86 22.3064C155.379 21.9526 154.835 21.7605 154.227 21.7303C153.618 21.7 153.083 21.838 152.621 22.1441L151.456 21.2859C151.611 20.7538 151.584 20.2018 151.375 19.6298C151.165 19.0577 150.82 18.5948 150.34 18.2409C149.727 17.7892 149.065 17.6172 148.355 17.7249C147.645 17.8327 147.064 18.1932 146.612 18.8065C146.349 19.1643 146.155 19.5773 146.031 20.0456C145.907 20.5139 145.857 21.1161 145.883 21.8523C145.908 22.5884 146.006 23.5042 146.177 24.5996C146.348 25.6951 146.6 27.0437 146.934 28.6456Z" fill="#FEE5BF"/>
<path d="M35.9393 24.8476L34.4489 24.9434C32.7145 25.0505 31.2508 25.1098 30.0579 25.1214C28.8649 25.1329 27.8543 25.0816 27.0262 24.9676C26.1981 24.8536 25.5139 24.6704 24.9737 24.418C24.4334 24.1656 23.9535 23.8336 23.5337 23.4219C22.676 22.5805 22.2416 21.5905 22.2306 20.4518C22.2196 19.313 22.6347 18.3148 23.4761 17.457C23.9415 16.9825 24.4849 16.6293 25.1063 16.3973C25.7277 16.1653 26.3731 16.0732 27.0424 16.121C26.9817 15.4527 27.0614 14.8057 27.2813 14.1799C27.5012 13.5542 27.8439 13.004 28.3093 12.5295C29.1506 11.6718 30.1406 11.2374 31.2794 11.2264C32.4181 11.2154 33.4164 11.6306 34.2741 12.4719C34.6939 12.8836 35.0351 13.3571 35.2979 13.8923C35.5607 14.4276 35.7571 15.1081 35.8871 15.9339C36.0171 16.7596 36.0878 17.769 36.0994 18.962C36.1109 20.155 36.0798 21.6195 36.0062 23.3556L35.9393 24.8476ZM34.461 23.3977C34.5355 21.7519 34.5696 20.371 34.5634 19.2548C34.5571 18.1386 34.5075 17.2126 34.4145 16.4769C34.3215 15.7411 34.1757 15.1505 33.9771 14.705C33.7785 14.2595 33.5195 13.8802 33.2001 13.5669C32.6526 13.0299 32.0173 12.7649 31.2943 12.7718C30.5713 12.7788 29.9413 13.0561 29.4043 13.6036C28.9836 14.0324 28.7152 14.548 28.599 15.1502C28.4828 15.7523 28.5446 16.3053 28.7845 16.8092L27.7641 17.8494C27.2557 17.6193 26.7016 17.5682 26.1018 17.696C25.502 17.8238 24.9917 18.1022 24.5711 18.5311C24.0341 19.0786 23.769 19.7138 23.776 20.4368C23.783 21.1598 24.0603 21.7899 24.6078 22.3269C24.9271 22.6401 25.3114 22.8918 25.7607 23.0818C26.2099 23.2717 26.8032 23.4061 27.5406 23.4849C28.278 23.5636 29.2048 23.5953 30.3209 23.58C31.437 23.5647 32.8171 23.5039 34.461 23.3977Z" fill="#FEE5BF"/>
<path d="M287.115 4.48252L288.483 4.96453C290.073 5.52925 291.404 6.0336 292.474 6.47759C293.544 6.92158 294.428 7.35218 295.124 7.76941C295.821 8.18663 296.362 8.61085 296.749 9.04207C297.135 9.47328 297.438 9.95274 297.656 10.4804C298.102 11.5588 298.113 12.6088 297.689 13.6304C297.265 14.652 296.514 15.3859 295.436 15.8319C294.839 16.0786 294.219 16.1872 293.576 16.1579C292.932 16.1285 292.321 15.965 291.741 15.6675C291.541 16.2877 291.223 16.8354 290.788 17.3108C290.353 17.7862 289.838 18.1472 289.241 18.394C288.163 18.84 287.113 18.8511 286.091 18.4273C285.07 18.0035 284.336 17.2524 283.89 16.174C283.672 15.6463 283.547 15.0933 283.516 14.515C283.485 13.9367 283.569 13.2539 283.767 12.4666C283.965 11.6793 284.287 10.7505 284.731 9.68024C285.174 8.60995 285.76 7.31324 286.487 5.7901L287.115 4.48252ZM287.883 6.34094C287.19 7.783 286.634 9.00387 286.214 10.0036C285.795 11.0032 285.487 11.8495 285.29 12.5422C285.092 13.235 284.998 13.8182 285.006 14.2919C285.013 14.7656 285.1 15.2032 285.266 15.6047C285.551 16.293 286.018 16.7717 286.666 17.0408C287.315 17.3098 287.984 17.302 288.672 17.0174C289.211 16.7944 289.647 16.436 289.98 15.9422C290.314 15.4484 290.469 14.9307 290.446 14.3892L291.754 13.8483C292.121 14.2475 292.596 14.5042 293.181 14.6184C293.766 14.7326 294.327 14.6782 294.867 14.4552C295.555 14.1706 296.034 13.7039 296.303 13.0552C296.572 12.4066 296.564 11.7381 296.279 11.0498C296.113 10.6483 295.866 10.2771 295.537 9.9363C295.208 9.59548 294.729 9.24949 294.1 8.89833C293.471 8.54718 292.655 8.16593 291.652 7.75458C290.649 7.34324 289.393 6.87203 287.883 6.34094Z" fill="#FEE5BF"/>
<path d="M375.991 37.987L375.457 36.6382C374.84 35.0674 374.348 33.7325 373.981 32.6334C373.614 31.5343 373.359 30.5851 373.217 29.7857C373.075 28.9864 373.04 28.2993 373.112 27.7247C373.184 27.15 373.347 26.6073 373.603 26.0964C374.124 25.0523 374.909 24.3551 375.958 24.0048C377.007 23.6545 378.054 23.7399 379.098 24.2612C379.675 24.5496 380.164 24.9463 380.564 25.4513C380.964 25.9563 381.242 26.5252 381.398 27.158C381.997 26.9023 382.619 26.7826 383.263 26.7989C383.907 26.8152 384.518 26.9675 385.095 27.2559C386.139 27.7772 386.837 28.5624 387.187 29.6115C387.537 30.6606 387.452 31.7071 386.931 32.7512C386.675 33.2621 386.34 33.7189 385.924 34.1216C385.508 34.5244 384.937 34.9091 384.213 35.276C383.489 35.6428 382.577 36.0097 381.478 36.3767C380.379 36.7437 379.016 37.1526 377.39 37.6032L375.991 37.987ZM376.889 36.1877C378.432 35.7649 379.719 35.3839 380.749 35.0447C381.778 34.7055 382.619 34.383 383.271 34.0773C383.923 33.7716 384.426 33.4604 384.778 33.1437C385.13 32.8271 385.404 32.4744 385.598 32.0857C385.93 31.4193 385.986 30.753 385.763 30.0869C385.541 29.4208 385.096 28.9214 384.43 28.5887C383.908 28.328 383.351 28.234 382.76 28.3065C382.169 28.379 381.676 28.6013 381.282 28.9735L380.016 28.3413C380.077 27.8027 379.959 27.2754 379.661 26.7592C379.364 26.2431 378.954 25.8547 378.432 25.594C377.766 25.2613 377.1 25.2061 376.434 25.4286C375.768 25.651 375.268 26.0954 374.935 26.7618C374.741 27.1506 374.624 27.5809 374.582 28.0528C374.541 28.5248 374.594 29.1132 374.741 29.8182C374.889 30.5232 375.136 31.3892 375.484 32.416C375.831 33.4429 376.3 34.7002 376.889 36.1877Z" fill="#FEE5BF"/>
<path d="M288.108 102.213L287.627 100.998C287.07 99.5817 286.627 98.3784 286.296 97.3878C285.965 96.3971 285.736 95.5415 285.608 94.821C285.48 94.1005 285.448 93.4812 285.513 92.9633C285.578 92.4453 285.725 91.9561 285.955 91.4956C286.425 90.5545 287.133 89.9261 288.078 89.6103C289.024 89.2945 289.967 89.3716 290.908 89.8414C291.429 90.1014 291.869 90.4589 292.23 90.9141C292.59 91.3693 292.841 91.8821 292.981 92.4525C293.522 92.222 294.082 92.1141 294.663 92.1288C295.243 92.1435 295.794 92.2808 296.314 92.5407C297.255 93.0106 297.884 93.7183 298.199 94.6639C298.515 95.6095 298.438 96.5529 297.968 97.4939C297.738 97.9544 297.436 98.3662 297.061 98.7292C296.686 99.0922 296.172 99.439 295.519 99.7697C294.866 100.1 294.044 100.431 293.053 100.762C292.063 101.093 290.835 101.461 289.369 101.867L288.108 102.213ZM288.917 100.591C290.308 100.21 291.468 99.867 292.396 99.5612C293.324 99.2554 294.082 98.9648 294.67 98.6892C295.258 98.4137 295.71 98.1332 296.028 97.8478C296.346 97.5624 296.592 97.2445 296.767 96.8941C297.067 96.2934 297.117 95.6929 296.916 95.0925C296.716 94.4921 296.315 94.042 295.714 93.742C295.244 93.5071 294.742 93.4223 294.209 93.4877C293.676 93.553 293.232 93.7534 292.877 94.0889L291.736 93.519C291.791 93.0336 291.684 92.5583 291.416 92.093C291.148 91.6278 290.779 91.2777 290.308 91.0428C289.708 90.7429 289.107 90.6931 288.507 90.8936C287.906 91.0941 287.456 91.4947 287.156 92.0954C286.981 92.4458 286.875 92.8337 286.838 93.259C286.801 93.6844 286.848 94.2148 286.981 94.8503C287.114 95.4857 287.337 96.2663 287.651 97.1919C287.964 98.1175 288.386 99.2507 288.917 100.591Z" fill="#FEE5BF"/>
<path d="M390.304 139.605L389.93 138.66C389.498 137.559 389.153 136.624 388.896 135.854C388.638 135.083 388.46 134.418 388.361 133.858C388.261 133.298 388.236 132.816 388.287 132.413C388.337 132.011 388.452 131.63 388.631 131.272C388.996 130.541 389.546 130.052 390.281 129.806C391.017 129.561 391.75 129.621 392.482 129.986C392.886 130.188 393.229 130.466 393.509 130.82C393.79 131.174 393.984 131.573 394.094 132.016C394.514 131.837 394.95 131.753 395.401 131.765C395.852 131.776 396.28 131.883 396.685 132.085C397.417 132.45 397.905 133.001 398.151 133.736C398.396 134.471 398.336 135.204 397.971 135.936C397.792 136.294 397.557 136.614 397.265 136.897C396.974 137.179 396.574 137.448 396.067 137.706C395.559 137.963 394.92 138.22 394.15 138.477C393.38 138.734 392.424 139.021 391.285 139.336L390.304 139.605ZM390.934 138.345C392.015 138.048 392.917 137.781 393.639 137.543C394.36 137.306 394.95 137.08 395.407 136.865C395.864 136.651 396.216 136.433 396.463 136.211C396.71 135.989 396.901 135.742 397.037 135.47C397.27 135.003 397.309 134.536 397.153 134.069C396.997 133.602 396.686 133.252 396.219 133.019C395.853 132.836 395.463 132.77 395.048 132.821C394.634 132.872 394.289 133.028 394.013 133.289L393.125 132.846C393.168 132.468 393.085 132.099 392.877 131.737C392.668 131.375 392.381 131.103 392.015 130.92C391.548 130.687 391.081 130.648 390.615 130.804C390.148 130.96 389.798 131.272 389.565 131.739C389.429 132.011 389.346 132.313 389.317 132.643C389.288 132.974 389.325 133.387 389.429 133.881C389.532 134.375 389.705 134.982 389.949 135.701C390.193 136.421 390.521 137.302 390.934 138.345Z" fill="#FEE5BF"/>
<path d="M408.381 94.4446L409.257 93.9278C410.277 93.329 411.147 92.8425 411.868 92.4684C412.588 92.0942 413.218 91.8144 413.756 91.6287C414.293 91.4431 414.765 91.3438 415.171 91.3307C415.577 91.3177 415.97 91.3716 416.352 91.4924C417.131 91.7392 417.7 92.2066 418.057 92.8946C418.414 93.5825 418.469 94.3164 418.222 95.0961C418.086 95.5274 417.865 95.9091 417.559 96.2411C417.253 96.5732 416.889 96.8277 416.468 97.0047C416.711 97.3917 416.862 97.8091 416.921 98.2567C416.98 98.7043 416.941 99.1437 416.804 99.5751C416.558 100.355 416.09 100.923 415.402 101.28C414.714 101.637 413.98 101.693 413.201 101.446C412.819 101.325 412.466 101.142 412.142 100.898C411.818 100.654 411.489 100.302 411.156 99.8402C410.823 99.3789 410.469 98.7879 410.095 98.0671C409.721 97.3464 409.289 96.4477 408.8 95.371L408.381 94.4446ZM409.725 94.8699C410.186 95.892 410.59 96.7409 410.938 97.4167C411.285 98.0924 411.6 98.6393 411.883 99.0574C412.166 99.4755 412.436 99.7892 412.694 99.9985C412.952 100.208 413.226 100.358 413.516 100.45C414.014 100.608 414.481 100.573 414.918 100.347C415.354 100.12 415.652 99.7576 415.809 99.26C415.933 98.8701 415.937 98.4745 415.822 98.0732C415.707 97.6718 415.5 97.3551 415.199 97.123L415.498 96.1774C415.878 96.1607 416.23 96.0212 416.555 95.759C416.879 95.4968 417.104 95.1708 417.227 94.781C417.385 94.2833 417.35 93.8161 417.123 93.3792C416.896 92.9424 416.534 92.6453 416.037 92.4877C415.746 92.3958 415.436 92.3613 415.104 92.3842C414.773 92.4071 414.372 92.5081 413.9 92.6873C413.428 92.8664 412.855 93.1323 412.182 93.4851C411.509 93.8379 410.69 94.2995 409.725 94.8699Z" fill="#FEE5BF"/>
<path d="M234.612 131.582L233.662 131.945C232.556 132.365 231.617 132.699 230.844 132.947C230.07 133.195 229.403 133.366 228.842 133.459C228.281 133.552 227.799 133.571 227.397 133.516C226.995 133.46 226.616 133.341 226.26 133.159C225.532 132.785 225.05 132.229 224.813 131.491C224.576 130.753 224.645 130.02 225.018 129.293C225.225 128.89 225.507 128.551 225.864 128.275C226.221 127.999 226.622 127.808 227.067 127.704C226.893 127.282 226.814 126.846 226.831 126.394C226.847 125.943 226.959 125.516 227.166 125.114C227.54 124.387 228.096 123.905 228.834 123.668C229.572 123.431 230.304 123.499 231.032 123.873C231.388 124.056 231.705 124.295 231.984 124.59C232.263 124.885 232.528 125.287 232.779 125.798C233.03 126.309 233.28 126.95 233.528 127.724C233.776 128.497 234.052 129.455 234.354 130.599L234.612 131.582ZM233.358 130.938C233.075 129.853 232.818 128.948 232.589 128.224C232.359 127.5 232.14 126.908 231.931 126.448C231.722 125.989 231.508 125.634 231.289 125.385C231.07 125.135 230.825 124.941 230.555 124.801C230.09 124.563 229.624 124.519 229.155 124.669C228.687 124.82 228.333 125.127 228.095 125.591C227.908 125.955 227.837 126.344 227.883 126.759C227.929 127.174 228.081 127.521 228.338 127.8L227.885 128.682C227.508 128.635 227.138 128.714 226.774 128.918C226.409 129.122 226.134 129.406 225.947 129.77C225.708 130.234 225.664 130.701 225.815 131.169C225.965 131.638 226.273 131.991 226.737 132.23C227.008 132.369 227.308 132.455 227.639 132.488C227.969 132.521 228.382 132.489 228.877 132.391C229.372 132.293 229.981 132.127 230.704 131.892C231.426 131.657 232.311 131.339 233.358 130.938Z" fill="#FEE5BF"/>
<path d="M366.41 101.43L366.019 102.369C365.56 103.459 365.155 104.37 364.802 105.101C364.449 105.833 364.113 106.434 363.793 106.904C363.473 107.375 363.155 107.737 362.838 107.991C362.521 108.244 362.174 108.437 361.796 108.569C361.024 108.838 360.289 108.804 359.59 108.467C358.892 108.13 358.409 107.575 358.139 106.803C357.99 106.376 357.939 105.938 357.985 105.489C358.031 105.04 358.17 104.618 358.401 104.224C357.975 104.06 357.604 103.816 357.289 103.493C356.973 103.17 356.741 102.795 356.592 102.367C356.323 101.595 356.356 100.86 356.693 100.162C357.03 99.4639 357.585 98.9802 358.357 98.7109C358.735 98.5791 359.127 98.5138 359.533 98.515C359.939 98.5163 360.413 98.6019 360.956 98.7718C361.499 98.9417 362.136 99.2032 362.868 99.5563C363.599 99.9093 364.483 100.37 365.52 100.939L366.41 101.43ZM365.079 101.895C364.098 101.352 363.266 100.915 362.583 100.582C361.9 100.249 361.32 99.9994 360.843 99.8341C360.366 99.6687 359.962 99.5794 359.63 99.5661C359.298 99.5529 358.989 99.5964 358.701 99.6967C358.208 99.8686 357.855 100.176 357.641 100.619C357.427 101.063 357.406 101.531 357.578 102.023C357.712 102.41 357.946 102.729 358.278 102.982C358.611 103.234 358.967 103.363 359.346 103.369L359.673 104.306C359.379 104.546 359.181 104.869 359.078 105.274C358.975 105.678 358.99 106.073 359.125 106.459C359.297 106.952 359.605 107.306 360.048 107.52C360.491 107.734 360.959 107.755 361.452 107.583C361.739 107.482 362.009 107.324 362.26 107.107C362.512 106.891 362.773 106.569 363.044 106.143C363.314 105.717 363.613 105.161 363.941 104.476C364.268 103.79 364.648 102.93 365.079 101.895Z" fill="#FEE5BF"/>
</svg>
