<svg width="6000" height="1467" viewBox="0 0 6000 1467" fill="none" xmlns="http://www.w3.org/2000/svg">
<path d="M1315.82 489.092V730.979C1315.82 830.841 1213.75 918.497 1192.67 939.579C1167.15 965.1 1133.87 1001.72 1078.39 1063.85C999.619 1023.91 822.101 970.648 728.905 944.018L726.686 935.141C762.189 906.292 784.379 866.347 784.379 796.444V659.966H769.956C716.7 659.966 681.197 673.281 663.445 709.897L653.46 705.459C664.554 591.173 716.7 542.351 781.05 542.351H784.379V409.202C688.963 343.737 674.54 332.642 653.46 332.642C636.817 332.642 627.941 340.409 602.423 362.6L588 348.176C615.737 325.984 715.591 240.547 734.452 225.013C796.583 269.396 828.758 296.026 913.079 355.943V695.473C913.079 767.595 903.094 796.444 830.977 859.69V861.909C866.481 867.457 931.94 887.429 961.897 896.306V300.464C961.897 272.725 956.349 243.876 951.911 229.451V227.232L975.21 230.561C978.539 243.876 981.867 271.615 981.867 292.697V352.614L1134.98 227.232C1273.66 279.382 1315.82 361.491 1315.82 489.092ZM981.867 587.844L1187.12 494.64V490.201C1187.12 392.559 1144.96 352.614 1056.2 318.217C1056.2 318.217 1000.73 362.6 981.867 378.134V587.844ZM981.867 691.035L1187.12 597.83V516.831L981.867 608.926V691.035ZM1187.12 823.074V620.022L981.867 712.117V901.854C1040.67 919.607 1103.91 941.799 1141.63 963.99C1169.37 938.47 1187.12 892.977 1187.12 823.074Z" fill="#060400"/>
<path d="M1764.32 970.648L1766.54 973.976C1741.02 998.387 1704.41 1033.89 1682.22 1056.08C1646.72 1028.35 1601.23 996.168 1579.04 980.634L1491.39 1056.08C1460.32 1030.56 1410.4 993.949 1371.57 968.428V963.99C1383.77 956.223 1390.43 946.237 1390.43 908.511V783.129C1430.37 764.267 1464.76 745.404 1489.17 729.87C1443.68 713.226 1405.96 671.062 1405.96 611.145C1405.96 533.475 1443.68 497.968 1478.08 456.914C1495.83 434.723 1506.92 420.298 1519.13 401.435C1572.38 424.736 1665.58 468.01 1726.6 490.201V494.64C1713.29 504.626 1707.74 519.05 1707.74 546.79V945.127C1717.72 955.113 1752.12 975.086 1764.32 970.648ZM1593.46 709.897V551.228C1545.75 522.379 1524.67 509.064 1502.48 509.064C1482.51 509.064 1432.59 523.489 1432.59 611.145C1432.59 669.953 1484.73 717.664 1556.85 717.664C1566.83 717.664 1580.15 714.336 1593.46 709.897ZM1552.41 973.976L1593.46 938.47V735.418C1581.26 739.856 1569.05 743.185 1555.74 743.185C1539.1 743.185 1520.24 738.746 1505.81 734.308C1500.27 744.294 1498.05 760.938 1498.05 780.91V937.36C1516.91 949.566 1531.33 961.771 1552.41 973.976Z" fill="#060400"/>
<path d="M2130.64 719.883V724.322C2118.43 733.198 2111.77 744.294 2111.77 766.486V958.442C2052.97 980.634 1989.73 1015.03 1929.82 1056.08C1898.75 1033.89 1856.59 1010.59 1817.76 1001.72C1815.54 1008.37 1813.32 1020.58 1813.32 1036.11C1813.32 1042.77 1813.32 1052.76 1813.32 1052.76C1803.34 1049.43 1784.48 1043.88 1784.48 1043.88C1787.8 911.84 1869.91 808.65 1912.07 757.609C1879.89 739.856 1815.54 699.911 1794.46 691.035V686.596C1806.67 679.939 1813.32 668.843 1813.32 646.651V485.763C1869.91 469.119 1933.15 435.832 1979.75 401.435C2015.25 429.175 2051.86 459.133 2092.91 483.544C2099.57 468.01 2098.46 452.476 2102.9 433.613C2109.55 439.161 2122.87 444.709 2127.31 450.257C2120.65 496.859 2094.02 563.433 2019.69 658.857L2130.64 719.883ZM2048.53 562.324C2003.04 540.132 1954.23 496.859 1932.04 474.667L1927.6 476.886V653.309C1937.58 658.857 1957.56 669.953 1968.65 674.391C1995.28 647.761 2031.89 595.611 2048.53 562.324ZM1996.39 978.415L1998.61 977.305V757.609L1964.21 739.856C1930.93 776.472 1863.25 867.457 1842.17 916.278C1900.97 919.607 1960.88 950.675 1996.39 978.415ZM2065.18 155.11L2084.04 169.534C2025.23 226.122 1996.39 274.944 1977.53 321.546H1948.68C1928.71 279.382 1897.64 220.575 1839.95 170.644L1859.92 154C1900.97 170.644 1929.82 197.273 1963.1 225.013C1996.39 198.383 2023.02 172.863 2065.18 155.11Z" fill="#060400"/>
<path d="M2510.01 615.583C2470.07 645.542 2373.54 693.254 2310.3 727.651V897.416C2377.98 940.689 2405.72 951.785 2425.69 951.785C2433.46 951.785 2441.22 947.346 2448.99 939.579L2458.97 929.593L2475.62 947.346C2450.1 971.757 2396.84 1025.02 2369.11 1056.08C2321.4 1026.13 2233.75 976.195 2177.16 948.456V944.018C2190.48 934.032 2196.03 924.045 2196.03 889.649V490.201C2253.72 474.667 2330.27 442.49 2395.73 400.326C2421.25 455.805 2478.94 565.652 2510.01 615.583ZM2411.27 645.542C2383.53 600.049 2334.71 515.722 2315.85 473.558L2310.3 474.667V698.802C2344.7 682.158 2387.97 661.076 2411.27 645.542Z" fill="#060400"/>
<path d="M3311.27 704.349C3311.27 783.129 3284.65 838.608 3208.09 909.621C3131.54 980.634 3111.57 998.387 3025.03 1068.29C2938.49 1023.91 2879.68 997.277 2817.55 997.277C2750.98 997.277 2688.85 1020.58 2688.85 1141.52H2686.63L2652.24 1112.67C2672.21 983.962 2756.53 876.334 2859.71 876.334C2934.05 876.334 3027.25 901.854 3128.21 949.566C3170.37 902.963 3204.76 863.019 3204.76 799.773C3204.76 722.103 3169.26 673.281 3054.98 673.281C3033.9 673.281 3013.93 673.281 2996.18 674.391C2957.35 749.842 2898.55 787.568 2879.69 793.115L2841.96 762.047L2843.07 759.828C2878.58 762.047 2937.38 717.664 2961.79 676.61C2824.21 676.61 2723.25 626.679 2723.25 481.325C2723.25 369.258 2825.32 289.368 2966.22 220.575C3058.31 240.547 3144.85 271.615 3209.2 300.464C3224.73 279.382 3250.25 249.423 3271.33 230.561H3273.55L3289.08 258.3C3239.16 294.916 3150.4 420.298 3082.72 535.694C3234.72 545.68 3311.27 600.049 3311.27 704.349ZM3130.43 410.312C3040.56 347.066 2942.93 312.669 2875.25 301.574C2834.2 323.765 2812.01 357.052 2812.01 401.435C2812.01 497.968 2858.6 535.694 3002.84 535.694C3018.37 535.694 3033.9 535.694 3051.66 534.584C3068.3 506.845 3112.68 436.942 3130.43 410.312Z" fill="#060400"/>
<path d="M3747.17 484.653V489.092C3734.97 497.968 3728.31 509.064 3728.31 539.023V951.785C3689.48 981.743 3648.43 1019.47 3614.03 1056.08C3589.63 1039.44 3553.01 1018.36 3518.62 1012.81V1201.44C3518.62 1244.71 3525.28 1261.36 3545.25 1273.56L3543.03 1278C3491.99 1271.34 3463.14 1234.73 3446.5 1193.67H3444.28C3435.41 1216.97 3408.78 1234.73 3392.14 1239.16L3388.81 1236.95C3397.68 1224.74 3404.34 1213.64 3404.34 1174.81V512.393C3372.17 491.311 3361.07 486.873 3349.98 487.982L3346.65 484.653L3430.97 401.435C3456.49 422.517 3504.2 460.243 3528.6 479.106C3566.33 449.147 3594.06 424.736 3620.69 401.435C3649.54 423.627 3715 465.791 3747.17 484.653ZM3614.03 951.785V523.489C3595.17 509.064 3574.09 494.64 3558.56 484.653L3518.62 517.941V922.936C3555.23 922.936 3592.95 937.36 3614.03 951.785Z" fill="#060400"/>
<path d="M4137.19 524.598C4115 546.79 4087.26 583.406 4066.18 612.255H4061.75C4034.01 582.296 3992.96 522.379 3979.64 490.201L3956.34 514.612V918.497C4009.6 951.785 4019.59 956.223 4036.23 956.223C4043.99 956.223 4050.65 949.566 4057.31 941.799L4067.29 930.703L4086.15 947.346C4020.7 1012.81 3978.53 1056.08 3978.53 1056.08C3931.94 1025.02 3880.9 997.277 3823.21 969.538V965.1C3835.41 954.004 3842.07 944.018 3842.07 909.621V512.393C3818.77 494.64 3803.24 487.982 3786.59 486.873L3784.37 483.544C3809.89 460.243 3843.18 430.284 3868.7 401.435C3899.76 426.956 3933.05 456.914 3960.78 479.106C3999.61 445.818 4011.82 432.503 4043.99 401.435C4065.07 434.723 4102.8 487.982 4137.19 524.598Z" fill="#060400"/>
<path d="M4525.03 970.648L4527.25 973.976C4501.73 998.387 4465.12 1033.89 4442.93 1056.08C4407.43 1028.35 4361.94 996.168 4339.75 980.634L4252.1 1056.08C4221.04 1030.56 4171.11 993.949 4132.28 968.428V963.99C4144.48 956.223 4151.14 946.237 4151.14 908.511V783.129C4191.08 764.267 4225.47 745.404 4249.88 729.87C4204.39 713.226 4166.67 671.062 4166.67 611.145C4166.67 533.475 4204.39 497.968 4238.79 456.914C4256.54 434.723 4267.63 420.298 4279.84 401.435C4333.09 424.736 4426.29 468.01 4487.31 490.201V494.64C4474 504.626 4468.45 519.05 4468.45 546.79V945.127C4478.44 955.113 4512.83 975.086 4525.03 970.648ZM4354.17 709.897V551.228C4306.47 522.379 4285.39 509.064 4263.2 509.064C4243.22 509.064 4193.3 523.489 4193.3 611.145C4193.3 669.953 4245.44 717.664 4317.56 717.664C4327.55 717.664 4340.86 714.336 4354.17 709.897ZM4313.12 973.976L4354.17 938.47V735.418C4341.97 739.856 4329.76 743.185 4316.45 743.185C4299.81 743.185 4280.95 738.746 4266.52 734.308C4260.98 744.294 4258.76 760.938 4258.76 780.91V937.36C4277.62 949.566 4292.04 961.771 4313.12 973.976ZM4449.59 162.877L4470.67 250.533C4437.38 269.396 4355.28 304.902 4294.26 319.327L4277.62 291.587C4334.2 258.3 4401.88 208.369 4449.59 162.877Z" fill="#060400"/>
<path d="M4926.85 471.339V475.777C4914.65 484.653 4907.99 495.749 4907.99 532.365V931.812C4835.87 973.976 4770.41 1015.03 4712.72 1056.08C4676.11 1030.56 4612.87 989.51 4565.16 961.771V957.333C4578.47 950.675 4584.02 936.251 4584.02 900.744V603.378C4584.02 552.338 4575.14 532.365 4556.28 501.297C4541.86 477.996 4531.87 460.243 4531.87 425.846C4531.87 375.915 4572.92 334.861 4606.21 315.998L4615.08 320.436C4599.55 339.299 4590.68 357.052 4590.68 382.573C4590.68 408.093 4610.65 424.736 4650.59 464.681C4682.76 496.859 4698.3 531.256 4698.3 597.83V795.335C4698.3 831.951 4687.2 871.895 4660.57 897.416V900.744C4698.3 925.155 4763.76 962.881 4791.49 977.305L4793.71 976.195V506.845C4780.4 495.749 4771.52 489.092 4755.99 479.106V477.996C4782.62 454.695 4813.68 424.736 4836.98 401.435C4836.98 401.435 4900.22 452.476 4926.85 471.339Z" fill="#060400"/>
<path d="M5387 1264.69L5370.36 1274.67C5370.36 1230.29 5350.39 1194.78 5266.07 1194.78C5180.64 1194.78 5127.38 1250.26 5044.17 1250.26C4989.8 1250.26 4952.08 1220.3 4952.08 1165.93C4952.08 1087.15 5009.77 1050.54 5108.52 1027.24V1025.02L5007.56 970.648V966.209C5019.76 959.552 5026.42 945.127 5026.42 922.936V512.393C5000.9 494.64 4982.04 486.873 4968.72 487.982L4967.61 484.653C4986.48 466.9 5029.75 426.956 5054.15 401.435C5087.44 426.956 5130.71 458.024 5159.56 476.886V481.325C5146.24 490.201 5140.69 500.188 5140.69 534.584V930.703C5158.45 941.799 5200.61 965.1 5233.89 982.853L5236.11 980.634V506.845C5222.8 495.749 5210.59 486.873 5198.39 479.106V477.996C5222.8 456.914 5256.08 424.736 5278.27 401.435C5301.57 420.298 5342.62 452.476 5369.25 471.339V475.777C5355.93 483.544 5350.39 495.749 5350.39 532.365V999.497C5292.69 1009.48 5215.03 1027.24 5148.46 1044.99C5074.13 1064.96 4985.37 1089.37 4985.37 1159.28C4985.37 1191.45 5000.9 1206.99 5035.29 1206.99C5097.42 1206.99 5167.32 1102.69 5256.08 1102.69C5342.62 1102.69 5385.89 1159.28 5387 1264.69Z" fill="#060400"/>
</svg>
