<svg width="1600" height="1600" viewBox="0 0 1600 1600" fill="none" xmlns="http://www.w3.org/2000/svg">
<path d="M836.458 592.596V853.949C836.458 961.847 726.162 1056.56 703.383 1079.34C675.809 1106.91 639.843 1146.47 579.9 1213.61C494.78 1170.45 302.961 1112.91 202.256 1084.13L199.859 1074.54C238.222 1043.37 262.2 1000.21 262.2 924.683V777.222H246.614C189.069 777.222 150.705 791.608 131.523 831.171L120.733 826.375C132.722 702.892 189.069 650.142 258.603 650.142H262.2V506.277C159.097 435.544 143.512 423.555 120.733 423.555C102.75 423.555 93.1593 431.948 65.5853 455.925L50 440.34C79.9717 416.362 187.87 324.049 208.251 307.265C275.387 355.22 310.154 383.993 401.268 448.732V815.586C401.268 893.512 390.479 924.683 312.552 993.018V995.416C350.916 1001.41 421.649 1022.99 454.019 1032.58V388.788C454.019 358.817 448.024 327.646 443.229 312.061V309.663L468.405 313.26C472.002 327.646 475.598 357.618 475.598 380.396V445.135L641.042 309.663C790.901 366.01 836.458 454.726 836.458 592.596ZM475.598 699.295L697.389 598.59V593.795C697.389 488.294 651.832 445.135 555.923 407.97C555.923 407.97 495.979 455.925 475.598 472.709V699.295ZM475.598 810.79L697.389 710.085V622.568L475.598 722.074V810.79ZM697.389 953.455V734.062L475.598 833.569V1038.58C539.138 1057.76 607.474 1081.73 648.235 1105.71C678.207 1078.14 697.389 1028.98 697.389 953.455Z" fill="#060400"/>
<path d="M1550 825.177C1550 910.296 1521.23 970.24 1438.51 1046.97C1355.78 1123.69 1334.2 1142.88 1240.69 1218.41C1147.18 1170.45 1083.64 1141.68 1016.5 1141.68C944.571 1141.68 877.435 1166.85 877.435 1297.53H875.037L837.872 1266.36C859.452 1127.29 950.566 1011 1062.06 1011C1142.38 1011 1243.09 1038.58 1352.19 1090.13C1397.74 1039.77 1434.91 996.615 1434.91 928.279C1434.91 844.358 1396.54 791.608 1273.06 791.608C1250.28 791.608 1228.7 791.608 1209.52 792.807C1167.56 874.33 1104.02 915.092 1083.64 921.086L1042.88 887.518L1044.08 885.12C1082.44 887.518 1145.98 839.563 1172.36 795.205C1023.7 795.205 914.6 741.256 914.6 584.204C914.6 463.118 1024.9 376.8 1177.15 302.47C1276.66 324.049 1370.17 357.618 1439.7 388.788C1456.49 366.01 1484.06 333.64 1506.84 313.26H1509.24L1526.02 343.231C1472.07 382.794 1376.16 518.266 1303.03 642.948C1467.28 653.738 1550 712.483 1550 825.177ZM1354.58 507.476C1257.48 439.141 1151.98 401.976 1078.84 389.987C1034.49 413.965 1010.51 449.931 1010.51 497.885C1010.51 602.187 1060.86 642.948 1216.71 642.948C1233.5 642.948 1250.28 642.948 1269.46 641.75C1287.45 611.778 1335.4 536.249 1354.58 507.476Z" fill="#060400"/>
</svg>
