<svg xmlns="http://www.w3.org/2000/svg" version="1.1" xmlns:xlink="http://www.w3.org/1999/xlink" width="1000" height="1000"><style>
    #light-icon {
      display: inline;
    }
    #dark-icon {
      display: none;
    }

    @media (prefers-color-scheme: dark) {
      #light-icon {
        display: none;
      }
      #dark-icon {
        display: inline;
      }
    }
  </style><g id="light-icon"><svg xmlns="http://www.w3.org/2000/svg" version="1.1" xmlns:xlink="http://www.w3.org/1999/xlink" width="1000" height="1000"><g clip-path="url(#SvgjsClipPath1072)"><rect width="1000" height="1000" fill="#fffef3"></rect><g transform="matrix(0.4,0,0,0.4,100,100)"><svg xmlns="http://www.w3.org/2000/svg" version="1.1" xmlns:xlink="http://www.w3.org/1999/xlink" width="2000" height="2000"><svg width="2000" height="2000" viewBox="0 0 2000 2000" fill="none" xmlns="http://www.w3.org/2000/svg">
<rect width="2000" height="2000" fill="#FFFEF3"></rect>
<path d="M1036.46 780.096V1041.45C1036.46 1149.35 926.162 1244.06 903.383 1266.84C875.809 1294.41 839.843 1333.97 779.9 1401.11C694.78 1357.95 502.961 1300.41 402.256 1271.63L399.859 1262.04C438.222 1230.87 462.2 1187.71 462.2 1112.18V964.722H446.614C389.069 964.722 350.705 979.108 331.523 1018.67L320.733 1013.88C332.722 890.392 389.069 837.642 458.603 837.642H462.2V693.777C359.097 623.044 343.512 611.055 320.733 611.055C302.75 611.055 293.159 619.448 265.585 643.425L250 627.84C279.972 603.862 387.87 511.549 408.251 494.765C475.387 542.72 510.154 571.493 601.269 636.232V1003.09C601.269 1081.01 590.479 1112.18 512.552 1180.52V1182.92C550.916 1188.91 621.649 1210.49 654.019 1220.08V576.288C654.019 546.317 648.024 515.146 643.229 499.561V497.163L668.405 500.76C672.002 515.146 675.598 545.118 675.598 567.896V632.635L841.042 497.163C990.901 553.51 1036.46 642.226 1036.46 780.096ZM675.598 886.795L897.389 786.09V781.295C897.389 675.794 851.832 632.635 755.923 595.47C755.923 595.47 695.979 643.425 675.598 660.209V886.795ZM675.598 998.29L897.389 897.585V810.068L675.598 909.574V998.29ZM897.389 1140.96V921.562L675.598 1021.07V1226.08C739.138 1245.26 807.474 1269.23 848.235 1293.21C878.207 1265.64 897.389 1216.48 897.389 1140.96Z" fill="#060400"></path>
<path d="M1750 1012.68C1750 1097.8 1721.23 1157.74 1638.51 1234.47C1555.78 1311.19 1534.2 1330.38 1440.69 1405.91C1347.18 1357.95 1283.64 1329.18 1216.5 1329.18C1144.57 1329.18 1077.43 1354.35 1077.43 1485.03H1075.04L1037.87 1453.86C1059.45 1314.79 1150.57 1198.5 1262.06 1198.5C1342.38 1198.5 1443.09 1226.08 1552.19 1277.63C1597.74 1227.27 1634.91 1184.11 1634.91 1115.78C1634.91 1031.86 1596.54 979.108 1473.06 979.108C1450.28 979.108 1428.7 979.108 1409.52 980.307C1367.56 1061.83 1304.02 1102.59 1283.64 1108.59L1242.88 1075.02L1244.08 1072.62C1282.44 1075.02 1345.98 1027.06 1372.36 982.705C1223.7 982.705 1114.6 928.756 1114.6 771.704C1114.6 650.618 1224.9 564.3 1377.15 489.97C1476.66 511.549 1570.17 545.118 1639.7 576.288C1656.49 553.51 1684.06 521.14 1706.84 500.76H1709.24L1726.02 530.731C1672.07 570.294 1576.16 705.766 1503.03 830.448C1667.28 841.238 1750 899.983 1750 1012.68ZM1554.58 694.976C1457.48 626.641 1351.98 589.476 1278.84 577.487C1234.49 601.465 1210.51 637.431 1210.51 685.385C1210.51 789.687 1260.86 830.448 1416.71 830.448C1433.5 830.448 1450.28 830.448 1469.46 829.25C1487.45 799.278 1535.4 723.749 1554.58 694.976Z" fill="#060400"></path>
<rect x="250" y="1455.86" width="720.833" height="25" fill="#FFC485"></rect>
<rect x="1158.33" y="1455.86" width="591.667" height="25" fill="#FFC485"></rect>
</svg></svg></g></g><defs><clipPath id="SvgjsClipPath1072"><rect width="1000" height="1000" x="0" y="0" rx="500" ry="500"></rect></clipPath></defs></svg></g><g id="dark-icon"><svg xmlns="http://www.w3.org/2000/svg" version="1.1" xmlns:xlink="http://www.w3.org/1999/xlink" width="1000" height="1000"><g clip-path="url(#SvgjsClipPath1073)"><rect width="1000" height="1000" fill="#060400"></rect><g transform="matrix(0.4,0,0,0.4,100,100)"><svg xmlns="http://www.w3.org/2000/svg" version="1.1" xmlns:xlink="http://www.w3.org/1999/xlink" width="2000" height="2000"><svg width="2000" height="2000" viewBox="0 0 2000 2000" fill="none" xmlns="http://www.w3.org/2000/svg">
<rect width="2000" height="2000" fill="#060400"></rect>
<path d="M1036.46 780.096V1041.45C1036.46 1149.35 926.162 1244.06 903.383 1266.84C875.809 1294.41 839.843 1333.97 779.9 1401.11C694.78 1357.95 502.961 1300.4 402.256 1271.63L399.859 1262.04C438.222 1230.87 462.2 1187.71 462.2 1112.18V964.721H446.614C389.069 964.721 350.705 979.108 331.523 1018.67L320.733 1013.88C332.722 890.392 389.069 837.641 458.603 837.641H462.2V693.777C359.097 623.044 343.512 611.055 320.733 611.055C302.75 611.055 293.159 619.447 265.585 643.425L250 627.839C279.972 603.862 387.87 511.549 408.251 494.765C475.387 542.72 510.154 571.493 601.269 636.231V1003.09C601.269 1081.01 590.479 1112.18 512.552 1180.52V1182.92C550.916 1188.91 621.649 1210.49 654.019 1220.08V576.288C654.019 546.316 648.024 515.146 643.229 499.56V497.163L668.405 500.759C672.002 515.146 675.598 545.117 675.598 567.896V632.635L841.042 497.163C990.901 553.509 1036.46 642.226 1036.46 780.096ZM675.598 886.795L897.389 786.09V781.295C897.389 675.794 851.832 632.635 755.923 595.47C755.923 595.47 695.979 643.425 675.598 660.209V886.795ZM675.598 998.29L897.389 897.585V810.067L675.598 909.573V998.29ZM897.389 1140.96V921.562L675.598 1021.07V1226.07C739.138 1245.26 807.474 1269.23 848.235 1293.21C878.207 1265.64 897.389 1216.48 897.389 1140.96Z" fill="#FFFEF3"></path>
<path d="M1750 1012.68C1750 1097.8 1721.23 1157.74 1638.51 1234.47C1555.78 1311.19 1534.2 1330.38 1440.69 1405.91C1347.18 1357.95 1283.64 1329.18 1216.5 1329.18C1144.57 1329.18 1077.43 1354.35 1077.43 1485.03H1075.04L1037.87 1453.86C1059.45 1314.79 1150.57 1198.5 1262.06 1198.5C1342.38 1198.5 1443.09 1226.07 1552.19 1277.63C1597.74 1227.27 1634.91 1184.11 1634.91 1115.78C1634.91 1031.86 1596.54 979.108 1473.06 979.108C1450.28 979.108 1428.7 979.108 1409.52 980.307C1367.56 1061.83 1304.02 1102.59 1283.64 1108.59L1242.88 1075.02L1244.08 1072.62C1282.44 1075.02 1345.98 1027.06 1372.36 982.705C1223.7 982.705 1114.6 928.755 1114.6 771.704C1114.6 650.618 1224.9 564.299 1377.15 489.969C1476.66 511.549 1570.17 545.117 1639.7 576.288C1656.49 553.509 1684.06 521.14 1706.84 500.759H1709.24L1726.02 530.731C1672.07 570.294 1576.16 705.766 1503.03 830.448C1667.28 841.238 1750 899.983 1750 1012.68ZM1554.58 694.976C1457.48 626.64 1351.98 589.476 1278.84 577.487C1234.49 601.464 1210.51 637.43 1210.51 685.385C1210.51 789.687 1260.86 830.448 1416.71 830.448C1433.5 830.448 1450.28 830.448 1469.46 829.249C1487.45 799.278 1535.4 723.749 1554.58 694.976Z" fill="#FFFEF3"></path>
<rect x="250" y="1455.86" width="720.833" height="25" fill="#FFC485"></rect>
<rect x="1158.33" y="1455.86" width="591.667" height="25" fill="#FFC485"></rect>
</svg></svg></g></g><defs><clipPath id="SvgjsClipPath1073"><rect width="1000" height="1000" x="0" y="0" rx="500" ry="500"></rect></clipPath></defs></svg></g></svg>